<svg width="63" height="50" viewBox="0 0 63 50" fill="none" xmlns="http://www.w3.org/2000/svg">
<path d="M29.6164 0.0480843C28.4278 0.125111 26.5122 0.455212 25.8277 0.70829C25.7535 0.735798 25.5147 0.80732 25.2971 0.873341C25.0796 0.939362 24.8514 1.01088 24.793 1.03839C24.7347 1.0604 24.4746 1.15943 24.2093 1.25846C23.3444 1.58306 22.5007 1.98468 21.5297 2.53485C18.8606 4.05882 16.7647 6.07244 14.8916 8.93332C14.2814 9.8631 13.9258 10.5123 13.5173 11.4641C13.4483 11.6126 13.2944 11.9703 13.167 12.2508C13.0397 12.5369 12.9336 12.779 12.9336 12.801C12.9336 12.8175 12.8646 13.0156 12.7797 13.2466C12.5091 13.9729 12.1005 15.5464 11.9519 16.4156C11.9148 16.6577 11.8564 16.9658 11.8246 17.1033C11.6707 17.8241 11.607 20.6244 11.7131 22.2089C11.814 23.7714 12.3127 26.0326 12.8752 27.5125C12.9017 27.5841 12.976 27.7766 13.0397 27.9417C13.0981 28.1067 13.1724 28.2938 13.1989 28.3543C13.2254 28.4148 13.2997 28.5854 13.3581 28.7394C13.8622 29.9498 14.6793 31.3967 15.3957 32.343C15.9581 33.0857 16.2553 33.4324 17.0671 34.2686C17.8737 35.1049 18.5794 35.7431 19.4072 36.3923C20.8664 37.5421 21.8852 38.1253 24.0501 39.0496C24.4853 39.2366 25.3449 39.5282 25.8543 39.6548C25.971 39.6878 26.2098 39.7483 26.3849 39.7923C27.9821 40.2159 29.8552 40.4305 31.585 40.392C33.0018 40.359 34.2434 40.1719 36.1218 39.7098C37.2043 39.4402 38.8227 38.78 39.677 38.2573C39.8362 38.1638 40.1228 37.9933 40.3138 37.8777C40.733 37.6356 40.6958 37.6577 41.6138 37.0415C43.4551 35.7926 44.8453 34.4832 46.1294 32.7777C47.785 30.5825 48.7666 28.5799 49.6793 25.5759C49.9287 24.7452 50.1675 23.4468 50.3214 22.0824C50.4752 20.6794 50.4116 18.2092 50.1834 16.8833C49.8915 15.1722 49.6315 14.1654 49.1009 12.6745C48.4695 10.8974 47.005 8.37215 45.7845 6.95271C45.2274 6.30901 43.7416 4.81805 43.1791 4.33941C41.5183 2.93647 39.5444 1.83614 37.3953 1.10991C34.5937 0.169125 32.4499 -0.127968 29.6164 0.0480843ZM29.3192 1.26396C29.4413 1.3905 29.7809 2.27077 29.8552 2.63388C29.9242 2.95848 29.8127 3.83325 29.6535 4.20736C29.5156 4.53196 29.2821 4.79054 28.9584 4.9831C28.8258 5.06013 28.6188 5.20867 28.4915 5.31321C28.258 5.51126 28.0033 5.9514 28.0033 6.15496C28.0033 6.65012 27.218 7.40385 25.3236 8.72425C24.3791 9.38446 24.1934 9.58252 23.8963 10.2537C23.684 10.7379 23.3975 11.0955 22.7607 11.6787C22.0179 12.3554 22.0179 12.3609 21.7101 13.8848C21.6146 14.358 21.4395 14.7761 21.2485 14.9742C21.1476 15.0787 21.1317 15.1502 21.137 15.5078C21.137 15.8324 21.1636 15.9645 21.2644 16.1405C21.5403 16.6247 21.9223 16.9328 22.4052 17.0428C22.5538 17.0758 22.8509 17.1418 23.0685 17.1914C23.286 17.2409 23.6628 17.3674 23.9016 17.4664C24.1404 17.571 24.5065 17.692 24.7134 17.7415C25.1432 17.8406 25.4934 18.0826 26.1408 18.7318C26.4804 19.0729 26.5918 19.1445 27.2233 19.425C27.6053 19.6011 27.9555 19.7386 27.9927 19.7441C28.0723 19.7441 28.2315 19.8487 28.6666 20.1733C29.176 20.5584 29.5474 20.7344 30.0091 20.7895C30.8846 20.8995 32.6091 21.004 32.7789 20.9545C32.8691 20.927 33.0814 20.7785 33.2459 20.6189C33.734 20.1568 33.9145 20.0522 34.2487 20.0522C34.53 20.0467 34.5512 20.0577 34.7422 20.2833C34.8749 20.4319 34.9863 20.6519 35.0659 20.9105C35.2463 21.4717 35.4267 21.7027 35.8194 21.8898C35.9998 21.9723 36.2545 22.0714 36.3872 22.1099C36.6896 22.1924 36.9708 22.4125 36.9708 22.561C36.9708 22.7151 36.5782 23.1057 36.2492 23.2707C35.9839 23.4028 35.6708 23.4303 35.2728 23.3477C35.1561 23.3257 34.9598 23.3422 34.7581 23.3973C34.392 23.4963 33.9516 23.5128 33.941 23.4303C33.9357 23.3973 33.9357 23.3367 33.9357 23.2927C33.9357 23.1222 33.9516 23.0947 34.1002 23.0397C34.2806 22.9736 34.3177 22.8196 34.2487 22.4675C34.1745 22.0989 34.01 22.0108 33.7606 22.2089C33.6491 22.3024 33.5483 22.3079 32.6887 22.2859C31.776 22.2639 31.7389 22.2639 31.6434 22.3795C31.4364 22.6215 31.7389 22.8911 32.4765 23.1277C32.7789 23.2212 33.1875 23.4248 33.5749 23.6779C33.6757 23.7439 33.8773 23.8539 34.0153 23.9309C34.2912 24.0685 34.583 24.3711 34.583 24.5086C34.583 24.5581 34.5194 24.7177 34.4398 24.8607L34.2965 25.1248L34.4769 25.4989C34.583 25.719 34.6573 25.9611 34.6573 26.0766C34.6626 26.2802 34.5883 26.3902 34.1055 26.9514C34.0153 27.0559 33.8189 27.3475 33.6704 27.6006C33.352 28.1287 33.1397 28.3763 32.6834 28.7339C32.1475 29.1575 32.3916 29.2786 33.0071 28.899C33.5642 28.5469 33.7712 28.3378 33.9994 27.8811C34.1585 27.5675 34.2912 27.386 34.5194 27.1879C34.6839 27.0449 34.8537 26.8853 34.8908 26.8413C35.05 26.6488 35.1667 26.3352 35.1667 26.1096C35.1667 25.917 35.1296 25.829 34.981 25.6475C34.6626 25.2568 34.6361 25.0258 34.8961 24.7837C35.0075 24.6792 35.0128 24.6792 35.1561 24.8222C35.2357 24.8992 35.3418 25.0918 35.3949 25.2458C35.5753 25.774 35.9361 26.0656 36.5251 26.1756C37.0345 26.2691 38.2337 26.3517 38.446 26.3132C38.7537 26.2581 39.0084 26.0986 39.3693 25.7465C39.8309 25.3009 40.0325 24.9377 40.1121 24.4041C40.2342 23.5678 39.9901 22.9296 39.4223 22.616C38.775 22.2584 38.5309 22.2969 37.926 22.8581C37.459 23.2927 37.2945 23.3973 37.1566 23.3422C37.0451 23.2927 37.0557 23.1882 37.2096 22.9571C37.3529 22.7371 37.39 22.3574 37.2892 22.1594C37.2149 22.0163 36.8647 21.7963 36.6153 21.7303C36.0953 21.5927 35.9627 21.5377 35.7822 21.3836C35.5859 21.2186 35.379 20.8665 35.379 20.7069C35.379 20.6629 35.4267 20.5749 35.4851 20.5144C35.6284 20.3658 35.6178 20.0907 35.4533 19.7717C35.2835 19.436 35.2994 19.227 35.4957 19.205C35.6071 19.1885 35.7292 19.282 36.1431 19.6891C36.419 19.9642 36.6631 20.2393 36.679 20.2943C36.7108 20.3933 37.2733 20.7344 37.4113 20.7344C37.4537 20.7344 37.6713 20.8665 37.8994 21.0205C38.5839 21.4992 38.6848 21.5542 38.9872 21.5927C39.4276 21.6477 40.9187 22.2584 41.2371 22.517C41.8738 23.0232 42.2453 23.5898 42.6008 24.6021C42.8077 25.1963 43.0465 25.697 43.3012 26.0876C43.54 26.4507 43.5824 26.6213 43.6355 27.419C43.6832 28.1782 43.7151 28.2167 43.9326 27.7381C44.0281 27.518 44.1237 27.3365 44.1396 27.3365C44.1555 27.3365 44.2139 27.43 44.2616 27.551C44.3784 27.8096 44.3784 28.2057 44.2722 28.6404C44.2245 28.8219 44.1449 29.2511 44.0865 29.5977C43.9432 30.4834 43.8318 30.7475 43.3702 31.3142C43.0147 31.7543 42.5424 32.5906 42.5424 32.7721C42.5424 32.8162 42.4893 32.9262 42.4257 33.0142C42.362 33.1078 42.293 33.3113 42.2718 33.4654C42.2346 33.7129 42.1922 33.779 41.9534 33.999C41.6934 34.2411 41.6775 34.2741 41.651 34.5712C41.635 34.8078 41.5767 34.9783 41.4228 35.2534C41.3007 35.457 41.2158 35.688 41.2158 35.7816C41.2158 36.0016 41.0248 36.1942 40.4889 36.5023C39.5603 37.0415 39.1835 37.1845 38.6635 37.1845C38.5574 37.1845 38.2178 37.234 37.9154 37.3C37.4856 37.3881 37.268 37.4046 36.9178 37.3771C36.6684 37.3551 36.2598 37.3441 36.0051 37.3496C35.5116 37.3551 35.3259 37.3 35.3259 37.1405C35.3259 37.0855 35.2941 36.9974 35.2569 36.9424C35.1933 36.8544 35.0712 36.8434 34.0365 36.8379C33.023 36.8269 32.8797 36.8159 32.7948 36.7334C32.6675 36.5958 32.7365 36.5463 33.2299 36.4418C33.4634 36.3923 33.8296 36.3042 34.0471 36.2437C34.3018 36.1777 34.6202 36.1392 34.9279 36.1392C35.3737 36.1392 35.4373 36.1282 35.6337 35.9851C36.2386 35.567 36.5463 34.6977 36.281 34.1586C36.1484 33.8835 35.9414 33.79 35.2994 33.6964L34.8218 33.6304L34.8377 33.3773C34.8484 33.1628 34.8324 33.1078 34.7422 33.0582C34.5088 32.9317 34.1267 33.1848 33.9251 33.5919C33.8773 33.6909 33.7659 33.878 33.681 34.0155C33.5749 34.1806 33.5059 34.3621 33.4846 34.5547C33.4475 34.8958 33.352 35.1544 33.2299 35.2589C33.1557 35.3249 33.0761 35.3029 32.6569 35.0829C31.9671 34.7253 31.6009 34.6207 31.3409 34.7087C31.1605 34.7748 31.1074 34.7693 30.9164 34.6812C30.6458 34.5547 30.4866 34.3401 30.2956 33.8505C30.1842 33.5699 30.0993 33.4379 29.9613 33.3498C29.5899 33.0967 29.5474 33.0527 29.4625 32.7887C29.3882 32.5521 29.3882 32.4971 29.4519 32.332C29.4944 32.233 29.5633 32.1174 29.6058 32.0789C29.696 32.0019 30.0886 31.9194 30.6193 31.8699C30.943 31.8424 30.9854 31.8259 31.0544 31.6828C31.1764 31.4352 31.1499 31.3307 30.9376 31.1822C30.6511 30.9841 30.6087 30.8906 30.7413 30.709C30.8474 30.5605 31.2083 30.4119 31.9618 30.2029C32.0785 30.1698 32.3332 30.0213 32.5242 29.8728C33.1185 29.4051 33.0124 29.2126 32.3438 29.5372C32.1634 29.6252 31.9405 29.7022 31.8609 29.7022C31.7813 29.7022 31.5319 29.7902 31.3144 29.8948C31.0968 29.9993 30.9005 30.0873 30.8793 30.0873C30.8527 30.0873 30.7307 30.1809 30.6034 30.2909L30.3752 30.4944L30.1735 30.3734C29.9507 30.2359 29.9507 30.2359 29.7119 30.5715C29.627 30.687 29.6005 30.6925 29.3829 30.643C29.0752 30.566 28.7143 30.566 28.5817 30.6375C28.3588 30.764 28.2527 31.2207 28.38 31.4793C28.4172 31.5398 28.5711 31.7543 28.7249 31.9469C28.9425 32.222 29.0221 32.376 29.0699 32.6126C29.1548 33.0197 29.2025 33.1078 29.5156 33.4544C29.8446 33.812 29.9772 34.0375 30.094 34.4392C30.1789 34.7253 30.2054 34.7583 30.407 34.8353C30.5291 34.8848 30.8103 34.9453 31.0279 34.9783C31.4948 35.0333 31.8928 35.1819 32.3226 35.4515C32.4924 35.556 32.6622 35.644 32.7046 35.644C32.8054 35.644 33.1504 35.9686 33.1504 36.0622C33.1504 36.1942 32.7948 36.1557 32.5985 36.0016C32.3916 35.8366 32.3597 35.8366 32.2748 35.9576C32.2218 36.0292 32.2218 36.0842 32.2801 36.2327C32.3226 36.3317 32.3544 36.4968 32.3544 36.6068C32.3544 36.8489 32.2642 36.8599 31.8981 36.6563C31.5638 36.4748 31.5054 36.4198 31.5054 36.3097C31.5054 36.1557 31.394 35.8091 31.3462 35.8091C31.256 35.8091 30.9536 36.1117 30.805 36.3538C30.5662 36.7499 30.614 37.1405 30.9483 37.4596C31.0225 37.5311 31.134 37.6742 31.1977 37.7787C31.2879 37.9272 31.2932 37.9712 31.2348 38.0428C31.1764 38.1143 31.1021 38.1253 30.8581 38.0978C30.4017 38.0428 30.1576 37.9327 29.6907 37.5861C29.0062 37.0745 28.9001 36.8654 28.9107 36.0567C28.916 35.523 28.9107 35.468 28.7727 35.2204C28.5711 34.8628 28.3482 34.5987 28.0882 34.4172C27.9662 34.3346 27.791 34.2026 27.6902 34.1311C27.4196 33.9275 27.1384 33.8615 26.9527 33.9605C26.7033 34.0926 26.6608 34.1916 26.6184 34.7473C26.5865 35.2479 26.5653 35.3084 26.2628 35.9411C26.0877 36.3097 25.8967 36.7279 25.849 36.8819C25.7428 37.1845 25.3767 37.5916 24.984 37.8557C24.6232 38.0923 24.3367 38.0648 23.5938 37.7182C22.0815 37.014 21.3652 36.5463 21.2856 36.2162C21.2272 35.9796 21.3493 35.666 21.5244 35.589C21.6623 35.534 21.7154 35.545 21.9913 35.6935C22.177 35.7981 22.3787 35.8641 22.5007 35.8641C23.1852 35.8641 23.6044 35.0554 23.2011 34.5162C23.0526 34.3071 22.8934 34.2686 22.7183 34.4062C22.5166 34.5657 22.0603 34.4722 21.795 34.2136C21.657 34.0816 21.6305 34.021 21.6464 33.8505C21.6623 33.6689 21.6942 33.6249 21.9117 33.5039C22.1983 33.3388 22.4848 33.0692 22.4848 32.9647C22.4848 32.9207 22.3362 32.6511 22.1611 32.3595C21.9807 32.0679 21.8109 31.7433 21.7844 31.6333C21.6729 31.2262 21.1901 30.9126 20.5109 30.819C20.3464 30.7915 20.3092 30.764 20.3092 30.665C20.3092 30.5165 20.4419 30.2029 20.6435 29.8838C20.8133 29.6032 20.9248 29.2841 20.9778 28.9045C20.9991 28.7504 21.0574 28.4918 21.1158 28.3268C21.2909 27.8096 21.2591 27.551 20.9195 26.7258C20.7497 26.3187 20.4897 25.7135 20.3358 25.3834C20.1819 25.0478 20.0174 24.6461 19.9643 24.4811C19.8635 24.1565 19.5876 23.7989 19.3329 23.6668C19.0517 23.5183 18.7227 23.2157 18.4149 22.8086C18.0276 22.2969 17.6243 21.9008 17.1573 21.5652C16.4994 21.0976 16.1492 21.037 15.2683 21.2351C14.9924 21.2956 14.605 21.3616 14.414 21.3781C14.0744 21.4057 14.0638 21.4002 13.9258 21.2296C13.8462 21.1361 13.7826 21.0315 13.7826 21.004C13.7826 20.872 13.4642 20.5364 13.1034 20.2833C12.5462 19.8927 12.5303 19.8487 12.6099 18.6988C12.8434 15.1997 14.1805 11.6126 16.4092 8.49318C17.5288 6.9252 19.5133 4.9776 20.8133 4.17435C21.0787 4.0148 21.4236 3.78924 21.588 3.6737C22.0125 3.37661 23.3603 2.71641 24.4481 2.27077C24.6975 2.17174 24.9894 2.12772 25.0636 2.17724C25.0955 2.20475 25.2016 2.3753 25.2918 2.56236L25.4563 2.90897H25.6951C25.8967 2.90897 25.971 2.87045 26.2469 2.63388C26.5865 2.34229 26.7457 2.14423 26.942 1.76461C27.0906 1.48403 27.1861 1.45102 28.0829 1.34098C28.4331 1.29697 28.7939 1.23645 28.8788 1.20894C29.1282 1.13192 29.2131 1.13742 29.3192 1.26396ZM31.4736 2.49634L31.4789 3.81675L31.7336 4.56498C32.0148 5.41774 32.036 5.66531 31.9087 6.65562C31.8026 7.43686 31.7495 9.34044 31.8132 10.1492C31.8715 10.9249 31.9299 11.0735 32.3173 11.3871C33.4051 12.2673 33.543 12.4489 34.0683 13.7198C34.2594 14.1709 34.4716 14.6826 34.5459 14.8476C34.7263 15.2493 34.7953 15.8214 34.7316 16.2781C34.6679 16.6907 34.5353 16.9878 34.2859 17.2794C33.9091 17.714 33.734 18.2807 33.8402 18.6933C33.8879 18.8749 33.9569 18.9684 34.1692 19.1225C34.3177 19.2325 34.5141 19.3645 34.6043 19.4085C34.7581 19.4911 34.9545 19.7606 34.8961 19.8212C34.8855 19.8377 34.7635 19.8102 34.6361 19.7661C34.3336 19.6561 33.941 19.6891 33.6279 19.8487C33.4953 19.9147 33.2087 20.1293 32.9912 20.3273C32.6463 20.6409 32.572 20.6849 32.434 20.6574C32.3491 20.6409 31.9034 20.5914 31.4524 20.5474C29.7703 20.3768 29.5156 20.3163 29.1707 19.9862C28.8894 19.7221 28.6135 19.5626 28.0298 19.337C26.9739 18.9244 26.3584 18.5778 26.3584 18.3962C26.3584 18.3467 26.4061 18.3137 26.4698 18.3137C26.6237 18.3137 26.5812 18.0881 26.4114 18.0056C26.3371 17.9726 26.0294 17.8186 25.7216 17.6645C25.4139 17.5105 25.0424 17.3564 24.8991 17.3234C24.5702 17.2464 23.9652 17.0483 23.891 16.9933C23.7848 16.9108 23.286 16.7677 22.8509 16.6962C22.6068 16.6522 22.3415 16.5917 22.2619 16.5587C22.0709 16.4816 21.6995 16.1295 21.5987 15.9315C21.4925 15.7169 21.5297 15.5519 21.8109 14.9687C22.0391 14.4955 22.1028 14.2259 22.193 13.3622C22.2407 12.9165 22.4583 12.5039 22.8032 12.2178C23.6097 11.5521 23.7265 11.4091 24.2889 10.3748C24.5436 9.90712 24.8142 9.62103 25.3714 9.23591C25.5677 9.09837 25.8596 8.8728 26.0294 8.73526C26.1939 8.59772 26.5494 8.33913 26.8094 8.15758C27.0747 7.98153 27.5045 7.61291 27.7751 7.33783C28.1731 6.9307 28.2686 6.79866 28.3164 6.5951C28.4862 5.87438 28.4968 5.85787 29.0752 5.39573C29.9984 4.642 30.3646 3.9763 30.3593 3.019C30.3593 2.54035 30.3433 2.45783 30.1629 2.01219C29.8233 1.18143 29.8499 1.13742 30.7785 1.15943L31.463 1.17593L31.4736 2.49634ZM33.4953 1.29147C33.8455 1.33548 34.2381 1.396 34.3708 1.42351C34.5034 1.45102 34.7157 1.48953 34.8484 1.51154C35.3153 1.57756 36.8329 2.0397 37.4484 2.29277C37.5227 2.32029 37.6872 2.39181 37.8198 2.44682C38.0586 2.54035 38.2815 2.63938 38.9342 2.94197C39.1252 3.0245 39.3958 3.16755 39.5338 3.25007C39.6717 3.3326 39.7991 3.40412 39.8097 3.40412C39.8946 3.40412 41.1203 4.20736 41.5607 4.54847C43.5506 6.09995 44.4261 6.98022 45.6519 8.66924C46.9466 10.4573 48.2466 13.3677 48.7719 15.6729C49.0691 16.9713 49.2017 17.9231 49.2866 19.425C49.4299 21.9008 49.0691 24.1895 48.0927 26.9789C47.5833 28.4478 46.5168 30.4779 45.5723 31.7928C44.7498 32.9372 42.8449 34.9618 42.3461 35.2259C42.0701 35.3689 42.0171 35.3469 42.0648 35.1049C42.0914 34.9948 42.1232 34.8353 42.1444 34.7473C42.1604 34.6647 42.3248 34.4227 42.5106 34.2136C42.7228 33.977 42.8661 33.7625 42.8873 33.6524C42.9085 33.5534 42.9722 33.3608 43.0359 33.2288C43.1049 33.0692 43.142 32.8877 43.1367 32.7061C43.1261 32.277 43.2481 31.9744 43.6036 31.5728C44.1449 30.9676 44.3571 30.3789 44.5322 29.0145C44.6012 28.4918 44.6171 28.1232 44.5959 27.6391C44.5535 26.8523 44.3784 25.6199 44.2616 25.3229C43.9061 24.4041 43.5877 24.0355 43.1579 24.0355C42.9298 24.0355 42.8502 23.9584 42.5053 23.4028C41.9534 22.5225 41.582 22.1704 40.855 21.8458C39.8627 21.4002 39.5285 21.2791 39.2048 21.2461C38.8864 21.2131 38.828 21.1856 38.4195 20.861C37.979 20.5144 37.8676 20.4484 37.3794 20.2558C37.1247 20.1568 36.87 19.9147 36.4243 19.3425C36.0263 18.8309 35.4692 18.6548 34.9916 18.8914C34.7316 19.0179 34.5777 19.0124 34.3496 18.8639C34.1957 18.7648 34.1585 18.7098 34.1585 18.5668C34.1585 18.3962 34.4504 17.736 34.6043 17.5435C34.7104 17.4169 34.9916 16.8282 35.0818 16.5532C35.1933 16.2121 35.1879 15.5574 35.0659 15.1502C35.0128 14.9687 34.8749 14.6111 34.7581 14.3525C34.5671 13.9289 34.1585 12.9055 34.1585 12.845C34.1585 12.8285 34.0736 12.6745 33.9728 12.4984C33.7553 12.1243 33.3997 11.7392 32.8957 11.3266C32.4924 11.002 32.3279 10.7874 32.2483 10.4958C32.1793 10.2537 32.1846 8.05305 32.2483 6.81517C32.3279 5.41224 32.3226 5.13165 32.1952 4.66951C31.8822 3.48114 31.8769 3.45913 31.8769 2.60637C31.8769 1.7151 31.9352 1.32448 32.0785 1.21444C32.1793 1.13742 32.3969 1.14842 33.4953 1.29147ZM26.3584 1.91866C26.4326 2.06171 26.4167 2.08921 26.1037 2.32029C25.902 2.46883 25.8277 2.49634 25.7269 2.45783C25.6208 2.41932 25.6049 2.3863 25.6367 2.23226C25.7004 1.86914 26.2204 1.64908 26.3584 1.91866ZM13.0662 20.828C13.2042 20.9765 13.3899 21.2021 13.4801 21.3396C13.6871 21.6532 13.7507 21.7027 14.0479 21.8018C14.1805 21.8403 14.3769 21.9173 14.4883 21.9668C14.7112 22.0604 14.8067 22.0328 15.0189 21.8293C15.1463 21.7082 15.5177 21.5762 15.8626 21.5267C16.4834 21.4387 17.1308 21.8788 18.1443 23.0837C18.4945 23.5073 18.7121 23.7054 18.9721 23.8649C19.4284 24.14 19.5027 24.2335 19.5982 24.6241C19.646 24.8002 19.7415 25.0533 19.8158 25.1908C19.8847 25.3284 20.028 25.6475 20.1341 25.906C20.3676 26.5057 20.5586 26.9404 20.7709 27.386C20.8664 27.5896 20.9248 27.7656 20.8982 27.7986C20.808 27.9252 20.6276 28.5413 20.5799 28.877C20.5215 29.2896 20.4684 29.4491 20.2933 29.7407C20.2243 29.8563 20.1448 30.0103 20.1235 30.0873C20.1023 30.1643 20.028 30.3514 19.959 30.5055C19.837 30.7695 19.7945 30.808 19.2586 31.1216C18.4627 31.5838 18.4733 31.5783 18.0329 31.6938C17.8153 31.7488 17.5818 31.8479 17.5129 31.9139L17.3961 32.0294L17.3431 31.8864C17.3112 31.8039 17.2953 31.5178 17.3006 31.2537C17.3112 30.687 17.2529 30.533 16.9875 30.3954C16.7912 30.3019 16.4622 30.2744 16.4145 30.3569C16.3561 30.4504 16.0059 30.4779 15.714 30.4174C15.3373 30.3349 15.2683 30.2414 14.5573 28.7504C13.6871 26.9183 13.3581 25.9776 12.907 23.9529C12.8009 23.4798 12.6311 22.1319 12.5887 21.4167C12.5356 20.5034 12.6364 20.3823 13.0662 20.828ZM32.6728 22.6325C32.8479 22.7261 32.8957 22.9076 32.7418 22.8636C32.2324 22.7206 32.036 22.638 32.036 22.561C32.036 22.495 32.0838 22.4895 32.2748 22.5115C32.4075 22.5335 32.5879 22.5885 32.6728 22.6325ZM33.8402 22.9351C33.8402 23.0176 33.6491 23.0011 33.5802 22.9131C33.5324 22.8526 33.5324 22.8306 33.5855 22.8086C33.6704 22.7811 33.8402 22.8636 33.8402 22.9351ZM39.1995 22.9076C39.3003 22.9846 39.4542 23.1662 39.5391 23.3092C39.6823 23.5403 39.6983 23.6118 39.6983 24.008C39.6983 24.3931 39.677 24.4976 39.5285 24.8112C39.1517 25.6255 38.6795 25.9556 37.9843 25.8895C37.7933 25.8675 37.3741 25.84 37.0504 25.818C36.3235 25.7795 36.1908 25.7355 35.9361 25.4659L35.7292 25.2458L35.7398 24.6902C35.7504 24.063 35.7769 24.0025 36.1484 23.7989C36.3235 23.6999 36.4561 23.6779 36.8966 23.6779C37.4113 23.6723 37.4378 23.6668 37.7721 23.4688C37.9578 23.3533 38.239 23.1497 38.3929 23.0176C38.7272 22.7261 38.9235 22.6986 39.1995 22.9076ZM43.7575 25.0478C43.9061 25.2128 44.0175 25.5979 44.0653 26.0821C44.0918 26.3902 44.0812 26.4562 44.0175 26.4562C43.9326 26.4562 43.593 25.7465 43.4922 25.3449C43.3861 24.9377 43.5187 24.7837 43.7575 25.0478ZM16.8124 30.8576C16.8973 30.9071 16.9133 30.9786 16.9133 31.2482C16.9133 31.4352 16.9504 31.6608 16.9928 31.7598C17.0671 31.9194 17.0671 31.9579 16.9928 32.1395C16.9504 32.2495 16.892 32.343 16.8708 32.343C16.7912 32.343 16.0855 31.5508 15.99 31.3582C15.8785 31.1381 15.9104 30.9511 16.0749 30.8686C16.2341 30.7915 16.6798 30.786 16.8124 30.8576ZM29.5262 31.0776C29.9719 31.1767 30.338 31.3527 30.338 31.4682C30.338 31.5343 29.9984 31.6168 29.5952 31.6553C29.2821 31.6883 29.2343 31.6773 29.0699 31.5508C28.8205 31.3582 28.6825 31.1326 28.7568 31.0391C28.8311 30.9456 28.9478 30.9511 29.5262 31.0776ZM20.9991 31.4077C21.2325 31.5288 21.3387 31.6718 21.5721 32.178C21.6623 32.376 21.7897 32.6291 21.8587 32.7391L21.9807 32.9427L21.8481 33.0857C21.7738 33.1628 21.6358 33.2673 21.5403 33.3168C21.4395 33.3663 21.3227 33.4819 21.2803 33.5809C21.206 33.7459 21.206 33.7845 21.3174 34.1366C21.5085 34.7528 21.4978 34.8408 21.1158 35.3634C20.8876 35.677 20.7868 35.8641 20.7868 35.9796C20.7868 36.0677 20.7656 36.1392 20.7391 36.1392C20.6329 36.1392 19.8158 35.4625 18.85 34.5712C18.3459 34.1146 18.1867 33.933 18.1867 33.834C18.1867 33.7955 18.33 33.7735 18.5794 33.7735C18.797 33.7735 19.0357 33.7515 19.11 33.7184C19.3064 33.6414 19.6513 33.3003 19.7468 33.0857C19.8317 32.9042 19.8317 32.8822 19.7256 32.6511C19.5717 32.2935 19.5876 32.0239 19.7839 31.7323C20.0758 31.3032 20.1872 31.2317 20.5109 31.2702C20.6701 31.2867 20.8876 31.3472 20.9991 31.4077ZM18.9774 32.0459C19.1047 32.2165 19.1684 32.6071 19.1047 32.8217C18.9933 33.1573 18.4521 33.3388 17.8684 33.2233C17.6402 33.1793 17.5394 33.1243 17.4067 32.9757C17.1998 32.7501 17.1839 32.5851 17.3484 32.5301C17.4173 32.5081 17.5871 32.409 17.7304 32.3045C17.8737 32.2055 18.0488 32.1064 18.1284 32.0954C18.2027 32.0789 18.3619 32.0294 18.4786 31.9909C18.7917 31.8809 18.8553 31.8864 18.9774 32.0459ZM34.7422 34.0485C34.8908 34.1091 35.0924 34.1586 35.1933 34.1586C35.2888 34.1586 35.4798 34.2081 35.6124 34.2686C35.8884 34.3896 35.9361 34.4997 35.899 34.9618C35.8618 35.446 35.6337 35.6275 34.7953 35.8311C34.3177 35.9521 33.681 36.0402 33.5642 36.0016C33.5112 35.9796 33.4687 35.9246 33.4687 35.8806C33.4687 35.7431 33.7181 35.0003 33.8985 34.6097C33.9834 34.4172 34.0524 34.2466 34.0524 34.2301C34.0524 34.1476 34.2912 33.9385 34.3761 33.9385C34.4292 33.9385 34.5937 33.988 34.7422 34.0485ZM27.5045 34.4777C27.6159 34.5657 27.8813 34.8243 28.0882 35.0498C28.5074 35.512 28.5127 35.5285 28.587 36.4363C28.6454 37.1405 28.709 37.2615 29.298 37.8227C29.7544 38.2518 29.9878 38.3674 30.4919 38.4114C30.927 38.4499 31.0597 38.5324 31.0013 38.7195C30.9536 38.8735 30.5927 39.1486 30.3487 39.2201C30.1258 39.2807 29.5209 39.1706 29.1601 39.0001C29.0327 38.9395 28.8682 38.89 28.7939 38.89C28.6719 38.89 28.656 38.9065 28.6825 39.0386L28.709 39.1816L28.2898 39.1486C27.5098 39.0936 25.3926 38.5049 25.3608 38.3399C25.3555 38.2958 25.4669 38.1308 25.6049 37.9768C25.8808 37.6742 26.162 37.157 26.3743 36.5793C26.4433 36.3813 26.5918 36.0292 26.698 35.7926C26.8359 35.49 26.9102 35.2369 26.9474 34.9178C27.0269 34.2686 27.1225 34.1916 27.5045 34.4777ZM22.9518 35.1489C22.9571 35.1984 22.9146 35.2919 22.8509 35.3579C22.7607 35.4625 22.6971 35.479 22.4689 35.468C22.2354 35.4515 22.193 35.435 22.193 35.3414C22.193 35.2534 22.2407 35.2259 22.4211 35.1984C22.5432 35.1819 22.6758 35.1379 22.7077 35.1049C22.7926 35.0168 22.9305 35.0443 22.9518 35.1489ZM31.9564 37.0635C32.572 37.278 32.4658 37.4266 31.7495 37.3386C31.2507 37.2725 31.0172 37.135 31.1446 36.9809C31.2295 36.8709 31.4895 36.8984 31.9564 37.0635ZM33.3308 37.6026C33.4422 37.7182 33.4369 37.7677 33.2989 37.8667C33.145 37.9768 32.9169 37.9768 32.8108 37.8667C32.7099 37.7622 32.6993 37.5916 32.7948 37.5531C32.9381 37.4871 33.2512 37.5201 33.3308 37.6026ZM37.926 37.7897C38.2231 37.9878 36.6366 38.5599 34.8271 38.9175C34.599 38.9616 34.3708 39.0111 34.323 39.0221C34.063 39.1046 32.365 39.3852 32.1262 39.3852C31.6009 39.3852 31.5054 39.1046 31.9777 38.9616C32.0997 38.9285 32.4658 38.868 32.7895 38.8405C33.4263 38.7745 33.994 38.6094 34.1426 38.4389C34.2275 38.3399 34.2275 38.3179 34.1479 38.1748C34.1055 38.0923 34.0789 37.9933 34.1002 37.9602C34.1638 37.8612 34.5777 37.8337 35.1879 37.8887C35.6496 37.9382 35.8141 37.9327 35.9839 37.8722C36.1059 37.8337 36.2492 37.7897 36.3076 37.7732C36.5092 37.7237 37.8464 37.7347 37.926 37.7897ZM32.4605 38.3014C32.5614 38.3399 32.6463 38.4059 32.6463 38.4499C32.6463 38.5159 32.5561 38.5379 32.2483 38.5599C31.7283 38.5984 31.6009 38.5764 31.6222 38.4609C31.6593 38.2518 32.0891 38.1693 32.4605 38.3014Z" fill="white"/>
<path d="M34.4506 30.2359C33.9784 30.3404 33.4849 30.489 33.4478 30.533C33.3735 30.6045 33.5592 30.7365 33.7874 30.7806C33.8882 30.8026 34.1429 30.9236 34.3498 31.0501C34.9017 31.3967 35.7029 31.6608 35.8144 31.5398C35.8356 31.5233 35.8144 31.4242 35.7719 31.3252C35.7135 31.1767 35.7082 31.0776 35.756 30.8631C35.8568 30.3789 35.809 30.3514 35.4854 30.687C35.1086 31.0666 34.9654 31.1272 34.8327 30.9566C34.7319 30.8356 34.7319 30.7806 34.8274 30.3459C34.8592 30.2084 34.8486 30.1974 34.7107 30.2029C34.6258 30.2084 34.509 30.2194 34.4506 30.2359Z" fill="white"/>
<path d="M49.918 3.54156C49.918 3.6681 50.1833 4.25128 50.4645 4.74093C50.6025 4.9775 50.7139 5.18106 50.7139 5.19206C50.7139 5.28559 51.738 6.84807 52.1254 7.34873C52.8205 8.2345 55.0385 10.5067 55.5903 10.8918L55.8238 11.0569L55.7867 10.7708C55.7654 10.6167 55.654 10.1931 55.5373 9.82999C54.5291 6.67202 53.2078 4.91698 51.0588 3.87166C50.2098 3.45353 49.918 3.371 49.918 3.54156Z" fill="white"/>
<path d="M11.1824 3.75062C10.4873 4.07522 10.1477 4.28429 9.60642 4.71892C8.11536 5.91279 6.82595 8.08045 6.25287 10.3582C6.16267 10.7213 6.08838 11.0349 6.08838 11.0569C6.08838 11.1559 6.1892 11.1009 6.39083 10.8973C6.50227 10.7873 6.79942 10.5067 7.0435 10.2811C9.04396 8.44907 10.3121 6.82607 11.5697 4.47685C11.713 4.20176 11.8775 3.92118 11.9306 3.84965C11.9889 3.77813 12.0314 3.6736 12.0314 3.61858C12.0314 3.44253 11.7342 3.49204 11.1824 3.75062Z" fill="white"/>
<path d="M55.8079 6.39698C55.8079 6.43549 55.8928 6.91414 55.999 7.45331C56.2908 8.95527 56.3333 9.20835 56.4129 9.92357C56.5933 11.486 56.8798 13.2026 57.0231 13.5987C57.0549 13.6867 57.0814 13.8298 57.0814 13.9233C57.0814 14.0939 57.0814 14.0939 56.97 13.9893C56.9063 13.9343 56.7525 13.7252 56.6304 13.5272C56.0043 12.5259 54.8528 11.2715 53.3458 9.96208C52.343 9.08731 51.478 8.42711 51.4197 8.48763C51.3348 8.57565 51.807 9.77502 52.1891 10.4407C52.3164 10.6663 52.5605 11.0349 52.7303 11.266C53.0434 11.6951 54.1099 12.801 54.9059 13.5272C56.0255 14.545 56.779 15.3757 57.4476 16.3165C57.7288 16.7237 57.8455 16.8007 57.8986 16.6191C58.0684 16.069 58.3337 13.8903 58.3868 12.6469C58.4345 11.5906 58.2753 10.3637 57.9835 9.53295C57.6333 8.53164 57.1663 7.7669 56.3226 6.79861C55.9035 6.32546 55.8079 6.24844 55.8079 6.39698Z" fill="white"/>
<path d="M5.6694 7.02413C4.53917 8.2235 3.98732 9.34034 3.69548 11.0019C3.53629 11.9096 3.52037 13.7472 3.66364 14.7925C3.7167 15.1721 3.79629 15.7498 3.83874 16.0854C3.88119 16.4155 3.94487 16.7841 3.9714 16.8997C4.04038 17.1637 4.09875 17.1197 4.35876 16.6411C4.76734 15.8874 5.61103 14.9246 7.118 13.4996C7.707 12.9439 8.31721 12.3388 8.4764 12.1462C8.63559 11.9591 8.79478 11.7721 8.83192 11.7391C8.86376 11.7006 9.04948 11.4475 9.2405 11.1669C9.76051 10.4242 10.4344 8.98273 10.4397 8.61412C10.4397 8.50958 10.2752 8.62512 9.52173 9.24681C7.47883 10.9468 6.19472 12.2507 5.42 13.4006C5.17061 13.7747 4.93714 14.0773 4.91061 14.0773C4.83632 14.0773 4.87877 13.6977 5.10163 12.4268C5.20245 11.8656 5.29265 11.332 5.30857 11.2439C5.3298 11.0899 5.5049 10.2206 5.77022 8.90571C5.85512 8.46557 6.009 7.82737 6.24778 6.87008C6.31676 6.6115 6.31145 6.48496 6.24247 6.48496C6.21063 6.48496 5.95063 6.72704 5.6694 7.02413Z" fill="white"/>
<path d="M59.4483 11.409C59.4324 11.4585 59.4165 11.8272 59.4165 12.2233C59.4165 12.6194 59.3793 13.2301 59.3422 13.5767C59.2998 13.9288 59.2255 14.5835 59.1777 15.0401C59.1353 15.4913 59.0716 16.0855 59.0451 16.3606C59.0132 16.6301 58.9548 17.2408 58.9124 17.7195C58.8699 18.1926 58.8222 18.6383 58.8116 18.7098C58.7957 18.7758 58.7585 19.2544 58.7267 19.7716C58.6418 21.191 58.6099 21.2626 58.3818 20.4703C57.8565 18.6548 57.3577 17.747 56.0099 16.1405C55.3095 15.3042 53.9192 14.0168 53.829 14.1159C53.6857 14.2589 53.9511 15.1612 54.4817 16.3606C55.0441 17.6314 55.2935 18.0881 56.0099 19.2049C57.3895 21.3506 58.0687 22.572 58.3446 23.4027C58.5197 23.9364 58.6259 24.162 58.6683 24.1124C58.6895 24.0849 58.7638 23.9034 58.8275 23.7053C59.0716 22.9846 59.2732 22.4069 59.3422 22.2474C59.4961 21.8898 60.1487 20.0137 60.3132 19.469C60.7059 18.1541 60.7643 17.703 60.7643 16.168C60.759 15.2107 60.7377 14.8311 60.6688 14.49C60.4565 13.4722 60.0638 12.2618 59.7455 11.6511C59.581 11.3375 59.5014 11.2715 59.4483 11.409Z" fill="white"/>
<path d="M2.30497 11.6126C1.7319 12.3993 1.09515 15.0731 1.08454 16.7181C1.07923 18.0275 1.39761 19.3975 2.19885 21.5046C2.35804 21.9172 2.72947 23.0011 2.97356 23.7438C3.06377 24.0244 3.15928 24.2554 3.1805 24.2554C3.24418 24.2554 3.37684 23.9474 3.44051 23.6503C3.55194 23.1111 3.98705 22.3133 5.44627 19.9586C6.75161 17.8515 7.36713 16.5806 7.92429 14.8586C8.11 14.2809 8.13654 14.1323 8.06225 14.1323C7.95082 14.1323 7.50509 14.5285 6.70916 15.3427C5.7275 16.344 5.08014 17.1473 4.50176 18.088C4.12502 18.6987 3.81725 19.392 3.54663 20.2502C3.41929 20.6408 3.30255 20.9544 3.28132 20.9544C3.22826 20.9544 3.13275 20.1897 3.0903 19.4965C3.07438 19.2214 3.03724 18.7648 3.0107 18.4787C2.97887 18.1926 2.93111 17.6974 2.89927 17.3783C2.86744 17.0592 2.80907 16.4651 2.76662 16.0579C2.66049 14.9796 2.53314 13.1255 2.5013 12.2398C2.49069 11.8161 2.46947 11.464 2.45885 11.4475C2.44824 11.4365 2.37926 11.5135 2.30497 11.6126Z" fill="white"/>
<path d="M61.5921 19.5626C61.4541 20.0082 61.0562 21.0591 60.8492 21.5322C60.6953 21.8898 60.4937 22.3575 60.3451 22.7151C60.2496 22.9406 60.0957 23.2927 60.0055 23.4963C59.9153 23.7054 59.7721 24.03 59.6818 24.228C59.5969 24.4261 59.4484 24.7507 59.3582 24.9543C58.7214 26.3847 58.09 28.0407 58.09 28.2773C58.09 28.3763 57.952 28.5854 57.9149 28.5469C57.8989 28.5304 57.8724 28.0352 57.8512 27.4465C57.814 26.1041 57.7875 25.8345 57.6655 25.3284C57.5063 24.6847 57.1561 23.6449 56.8377 22.8801C56.7899 22.7756 56.7369 22.638 56.7104 22.5775C56.514 22.0824 55.7552 20.5474 55.4846 20.1073C55.1981 19.6341 55.1503 19.5791 55.1132 19.6781C55.0336 19.8982 55.283 22.1154 55.5589 23.6779C55.6226 24.03 56.1161 26.1921 56.3336 27.0614C56.3601 27.1659 56.4291 27.5235 56.4928 27.8591C56.5512 28.1892 56.6255 28.6129 56.6573 28.7944C56.7634 29.3666 56.7846 30.8796 56.6944 31.4077C56.652 31.6663 56.6255 31.8919 56.6414 31.9139C56.6838 31.9964 56.7422 31.9579 56.8377 31.7874C57.0659 31.3912 58.0794 30.1093 59.3316 28.6514C60.2072 27.6226 60.6688 26.8908 61.0774 25.851C61.2949 25.3009 61.5815 24.4261 61.6452 24.118C61.6717 23.997 61.7407 23.6504 61.8043 23.3478C62.0431 22.1979 62.0962 20.3438 61.9211 19.3975C61.8362 18.9464 61.7778 18.9739 61.5921 19.5626Z" fill="white"/>
<path d="M0.0711941 19.5351C-0.0667682 20.0853 0.00751915 22.6216 0.193238 23.7604C0.522225 25.7741 1.36061 27.4576 2.85697 29.1246C3.4725 29.8068 4.39048 31.0227 4.9211 31.8589C5.05376 32.0625 5.18111 32.233 5.20764 32.233C5.22886 32.233 5.23417 32.068 5.21825 31.8589C5.20233 31.6554 5.17049 31.0997 5.15457 30.6265C5.11212 29.5042 5.17049 29.0641 5.62152 27.0614C5.70642 26.6818 5.855 26.0271 5.95582 25.6035C6.42277 23.6009 6.52358 23.0232 6.69338 21.3672C6.82604 20.0688 6.83665 19.8542 6.75175 19.8542C6.51828 19.8542 5.20233 22.3355 4.73007 23.6779C4.52844 24.2391 4.27904 25.1579 4.18353 25.6585C4.02965 26.4838 3.897 27.7106 3.93414 28.0022C3.95536 28.1398 3.94475 28.3158 3.92353 28.3874L3.87577 28.5139L3.79087 28.3764C3.73781 28.2993 3.62107 27.9802 3.52025 27.6611C3.17004 26.5388 2.7084 25.3779 2.04512 23.9255C1.71082 23.2103 1.5251 22.7866 1.2651 22.2035C1.06346 21.7358 0.410794 20.0413 0.410794 19.9753C0.410794 19.8652 0.20385 19.4141 0.156094 19.4141C0.124256 19.4141 0.092419 19.4691 0.0711941 19.5351Z" fill="white"/>
<path d="M54.8475 26.0545C54.7626 26.2856 54.5291 27.2704 54.4071 27.9141C54.2267 28.8494 54.1524 29.2675 54.0781 29.7021C53.9879 30.2743 53.8022 31.6552 53.7597 32.0679C53.6961 32.7281 53.4254 34.4226 53.314 34.8737C53.2875 34.9783 53.2291 35.2368 53.1761 35.4514C52.9956 36.2217 52.6242 37.3 52.3748 37.7841C52.1307 38.2628 52.2156 38.2793 52.8365 37.8942C53.0858 37.7456 53.5528 37.4705 53.8818 37.289C54.2108 37.1129 54.5557 36.9149 54.6512 36.8543C54.7467 36.7938 54.8634 36.7278 54.9059 36.7058C55.0439 36.6398 56.2271 35.9191 56.8639 35.5174C57.766 34.9398 58.5194 34.3236 59.2623 33.5533C60.1485 32.6235 60.9497 31.1931 61.4485 29.6471C61.6767 28.9374 62.0905 27.0668 62.0322 27.0063C62.0163 26.9898 61.9897 27.0063 61.9791 27.0448C61.9685 27.0778 61.8995 27.1769 61.8252 27.2649C61.7563 27.3474 61.6236 27.5565 61.5334 27.7215C61.0983 28.5248 60.4562 29.2895 58.408 31.4352C55.9035 34.0595 55.3675 34.6482 55.0014 35.2148C54.9324 35.3304 54.8104 35.4734 54.7308 35.5339L54.5875 35.6495V35.5064C54.5875 35.4294 54.6936 35.0993 54.8263 34.7857C55.0545 34.23 55.1765 33.7954 55.3516 32.8821C55.5533 31.8643 55.5002 28.9209 55.2561 27.3914C55.1871 26.9513 55.1128 26.4727 55.0916 26.3241C55.0279 25.8675 54.9483 25.7794 54.8475 26.0545Z" fill="white"/>
<path d="M6.88962 26.2416C6.82064 26.4397 6.7092 27.1439 6.59247 28.1342C6.55532 28.4643 6.49165 28.9594 6.45981 29.2345C6.3696 29.9222 6.42267 32.431 6.5341 33.0582C6.65084 33.7074 6.88431 34.5106 7.11248 35.0498C7.25575 35.3909 7.33003 35.787 7.26105 35.8365C7.22922 35.8531 6.97452 35.5615 6.68798 35.1929C6.40144 34.8187 5.4304 33.7349 4.52303 32.7831C1.44541 29.5426 1.03683 29.064 0.357631 27.9306C0.198444 27.6665 0.0498691 27.4685 0.0233379 27.496C-0.00319329 27.5235 0.0074192 27.7491 0.0392567 28.0021C0.140075 28.7559 0.320488 29.4656 0.707843 30.5824C1.20132 32.0184 2.24135 33.4928 3.59444 34.6592C4.48589 35.4294 5.81776 36.2822 8.55578 37.8337C8.84762 37.9987 9.20844 38.2023 9.36233 38.2903C9.61703 38.4388 9.80274 38.4939 9.80274 38.4223C9.80274 38.4058 9.68601 38.1528 9.54274 37.8557C9.07579 36.8929 8.76803 35.798 8.37006 33.6909C8.317 33.4213 8.28516 33.1902 8.13128 31.9854C7.92964 30.3734 7.81821 29.7462 7.54228 28.5468C7.43616 28.0792 7.31942 27.5455 7.28228 27.3639C7.14962 26.7092 7.05411 26.3186 7.00635 26.1866C6.95329 26.0545 6.95329 26.0545 6.88962 26.2416Z" fill="white"/>
<path d="M52.4171 32.0018C51.9767 32.486 51.2922 33.4268 50.9049 34.087C50.491 34.8077 49.9073 36.1886 49.2016 38.1197C49.0954 38.4058 48.9893 38.6919 48.9628 38.7524C48.8142 39.0935 48.6975 39.3851 48.6975 39.4126C48.6975 39.4786 48.1987 40.5185 47.9705 40.9146C47.7105 41.3822 47.477 41.6903 47.026 42.18C46.8509 42.3725 46.7023 42.5651 46.6917 42.6091C46.6652 42.7191 46.9358 42.7081 47.6893 42.5816C48.0236 42.5266 48.4428 42.4606 48.6179 42.4386C49.0158 42.3945 50.353 42.158 50.8465 42.0479C51.0534 41.9984 51.3241 41.9379 51.4567 41.9104C51.7167 41.8609 51.8494 41.8224 52.4914 41.6188C54.3433 41.0356 55.7707 40.1444 57.0972 38.7524C57.9834 37.8281 58.6997 36.8158 59.1508 35.8475C59.6283 34.8187 59.5753 34.7527 58.8483 35.4789C58.2009 36.1281 57.3838 36.7828 56.7364 37.1569C56.1846 37.4815 54.4919 38.3343 53.1016 38.9835C52.3535 39.3356 50.3955 40.3479 50.1938 40.491C50.0665 40.579 49.9444 40.6505 49.9232 40.6505C49.8967 40.6505 49.8118 40.7055 49.7322 40.766C49.4987 40.9641 48.8885 41.2557 48.8407 41.2062C48.8142 41.1787 48.9575 40.9751 49.1856 40.722C49.8808 39.9628 50.751 38.6699 51.0375 37.9712C51.0959 37.8281 51.1649 37.6576 51.1967 37.5971C51.2816 37.4045 51.5151 36.7333 51.722 36.0841C52.0722 35.0003 52.2526 34.274 52.5498 32.8106C52.5976 32.596 52.6506 32.3374 52.6825 32.2274C52.7461 31.9633 52.7408 31.7928 52.6718 31.7928C52.64 31.7928 52.5233 31.8863 52.4171 32.0018Z" fill="white"/>
<path d="M9.27207 32.09C9.27207 32.4806 9.59575 34.2191 9.85576 35.2039C9.94596 35.5506 10.0468 35.9357 10.0733 36.0567C10.2856 36.959 11.0231 38.615 11.6121 39.5173C11.9729 40.0674 12.095 40.2325 12.5301 40.7056C12.7636 40.9587 12.9068 41.1898 12.8644 41.2393C12.8379 41.2668 12.2754 40.9807 11.9783 40.7882C11.5962 40.5406 10.3917 39.9244 8.68838 39.1101C7.57938 38.582 7.46264 38.527 6.91079 38.2849C5.08014 37.4761 3.83317 36.6289 2.69233 35.402C2.28375 34.9619 2.28375 35.0609 2.70294 35.9742C3.52541 37.7622 5.15443 39.6713 6.7463 40.7056C8.20552 41.6574 9.70188 42.1416 12.0313 42.4112C12.3072 42.4442 12.6893 42.4937 12.8803 42.5212C13.0713 42.5487 13.5701 42.6257 13.9946 42.6862C14.4191 42.7468 14.902 42.8238 15.0771 42.8568C15.2469 42.8898 15.4008 42.9008 15.4167 42.8843C15.4326 42.8678 15.1938 42.5872 14.8861 42.2571C14.0318 41.3383 13.5701 40.5461 13.0395 39.0826C12.8856 38.659 12.7424 38.2629 12.7158 38.2024C12.6893 38.1418 12.6468 38.0153 12.6203 37.9273C12.3974 37.1901 11.8191 35.7376 11.4423 34.9949C10.9648 34.0376 10.4448 33.2729 9.66473 32.3596C9.36758 32.013 9.27207 31.9469 9.27207 32.09Z" fill="white"/>
<path d="M48.3261 37.278C47.8485 37.7016 46.8881 38.6314 45.8375 39.6822C44.304 41.2117 43.4815 41.9159 42.6219 42.4276C41.9056 42.8567 40.977 43.1923 40.3296 43.2693C40.1598 43.2914 39.9741 43.3299 39.921 43.3629C39.8202 43.4124 39.8202 43.4179 39.9157 43.4949C39.9741 43.5334 40.1067 43.5939 40.2129 43.6215C40.319 43.6545 40.7647 43.825 41.1945 44.0121C42.8341 44.6998 43.3223 44.8758 44.7019 45.25C45.6199 45.4975 46.9571 45.7066 47.6363 45.7121C48.5596 45.7121 50.04 45.4205 50.8466 45.0794C50.9368 45.0464 51.0907 44.9804 51.1915 44.9419C52.0511 44.6008 53.3246 43.638 54.1842 42.6807C54.7891 42.004 54.7201 41.9269 53.8658 42.3286C53.2185 42.6366 52.9638 42.7467 52.518 42.8952C51.7592 43.1538 50.8094 43.3959 50.2947 43.4619C49.7163 43.5334 43.126 43.5994 43.126 43.5334C43.126 43.5059 43.2056 43.4564 43.3011 43.4234C44.3783 43.0438 45.2326 42.5651 45.7314 42.059C46.6493 41.1402 47.0579 40.502 48.1563 38.2573C48.8355 36.8709 48.8461 36.8159 48.3261 37.278Z" fill="white"/>
<path d="M13.3051 37.289C13.3051 37.4706 14.0799 39.1211 14.568 39.9904C15.6558 41.9215 17.1044 43.1318 18.7865 43.517C18.9563 43.5555 19.1049 43.605 19.1208 43.627C19.1738 43.7205 18.3938 43.7425 15.157 43.715C11.5275 43.6875 11.1667 43.6655 10.1214 43.3959C9.37852 43.2034 8.23768 42.7852 7.6646 42.4881C7.4948 42.4056 7.34623 42.3561 7.33031 42.3726C7.22949 42.4716 7.87155 43.2144 8.57197 43.8031C9.67567 44.7383 11.2888 45.5691 12.297 45.7121C12.488 45.7396 12.8223 45.7892 13.0398 45.8277C14.0215 45.9817 16.213 45.7507 17.6297 45.3435C18.6114 45.0629 20.2351 44.4633 20.9939 44.1056C21.3441 43.9406 21.9543 43.561 21.9543 43.5115C21.9543 43.4895 21.827 43.4509 21.6784 43.4344C21.307 43.3794 20.4951 43.1043 19.9645 42.8513C18.9828 42.3836 18.3726 41.8775 15.8893 39.5062C14.3982 38.0758 13.4537 37.2395 13.337 37.2395C13.3211 37.2395 13.3051 37.2615 13.3051 37.289Z" fill="white"/>
<path d="M26.9948 43.3299C26.894 43.3354 26.5014 43.3739 26.1193 43.4069C25.3287 43.4784 24.6866 43.605 24.0923 43.8195C23.4715 44.0396 22.336 44.5733 21.6408 44.9694C21.0837 45.2885 20.4045 45.6296 19.6192 46.0037C18.9081 46.3393 17.693 46.785 17.0722 46.95C16.2019 47.1756 14.0901 47.1921 13.0925 46.9775C12.8166 46.917 12.5194 46.8675 12.4292 46.873H12.27L12.4823 47.0655C12.9015 47.4562 13.7027 47.9568 14.297 48.2044C14.6578 48.3529 15.6819 48.6115 16.2232 48.6885C17.0987 48.8206 18.3775 48.7711 19.1681 48.5785C19.2849 48.5455 19.6192 48.4685 19.911 48.4024C20.2029 48.3364 20.4682 48.2649 20.4947 48.2429C20.5265 48.2209 20.7176 48.1439 20.9192 48.0778C21.1261 48.0118 21.3172 47.9348 21.3437 47.9128C21.3755 47.8908 21.5772 47.7808 21.7947 47.6652C22.3996 47.3406 23.2221 46.8345 24.6866 45.8772C26.045 44.9859 26.9418 44.4797 27.4936 44.2817C27.881 44.1441 28.8679 44.0451 29.3296 44.1056C29.8974 44.1716 29.839 44.2597 28.8945 44.7493C27.8014 45.3215 26.8144 45.9432 26.0769 46.5264C24.9095 47.4452 23.2805 48.9031 23.2805 49.0241C23.2805 49.0461 23.6519 49.0682 24.1029 49.0682H24.9307L25.2597 48.7491C25.8965 48.1494 26.0663 47.9953 26.3263 47.7753C26.6552 47.5002 27.223 47.0545 27.4989 46.851C27.6157 46.7684 27.881 46.5704 28.0826 46.4218C28.8202 45.8717 29.3349 45.5416 30.0565 45.1565C31.0117 44.6503 31.1284 44.6338 31.7227 44.9254C33.1342 45.6131 34.9383 46.961 36.5673 48.551L37.0979 49.0682H37.8833C38.5678 49.0682 38.6686 49.0571 38.6686 48.9801C38.6686 48.8811 37.7135 47.8743 37.2094 47.4452C37.0343 47.2911 36.8432 47.1261 36.7849 47.071C36.5567 46.862 35.1612 45.8827 34.5244 45.4921C33.8983 45.1069 33.5427 44.9144 32.6619 44.5073C32.1578 44.2762 32.179 44.1937 32.7786 44.0781C33.686 43.9076 34.5403 44.0891 35.6706 44.6833C35.904 44.8043 36.1906 44.9749 36.3073 45.0519C36.6416 45.2885 38.4086 46.4273 38.4404 46.4273C38.451 46.4273 38.5625 46.4989 38.6845 46.5869C39.5813 47.2251 40.8866 47.8138 42.1442 48.1549C43.2054 48.4465 43.5291 48.4905 44.5585 48.4905C46.1079 48.4905 47.2753 48.2099 48.4586 47.5552C48.9309 47.2966 49.7056 46.7574 49.7056 46.6969C49.7056 46.6199 49.4827 46.6364 49.0051 46.7519C48.4586 46.884 47.3761 47.0325 46.9622 47.0325C46.092 47.0325 44.2614 46.6529 43.2213 46.2568C42.6483 46.0367 40.7805 45.1124 40.34 44.8263C39.958 44.5788 38.6102 44.0121 37.6869 43.7095C36.8167 43.4289 35.8032 43.2914 34.5828 43.2914C33.564 43.2914 33.2191 43.3299 31.9031 43.5775C31.1178 43.7315 30.879 43.7315 30.2051 43.5775C29.25 43.3629 27.7802 43.2474 26.9948 43.3299Z" fill="white"/>
</svg>
