<svg width="90" height="163" viewBox="0 0 90 163" fill="none" xmlns="http://www.w3.org/2000/svg">
<path d="M25.0452 40.0361C19.717 36.2957 19.3265 28.5424 24.2518 24.2856L31.4576 18.0579C36.3145 13.8602 43.8122 15.261 46.826 20.929L55.2547 36.7812C57.4457 40.9019 56.4951 45.9901 52.9642 49.0418L52.1018 49.7871C48.633 52.7851 43.5699 53.0401 39.8174 50.4059L25.0452 40.0361Z" fill="#FFB30F"/>
<path d="M13.8788 74.0906C7.36969 73.982 2.69808 67.7818 4.38863 61.4952L6.86188 52.2979C8.52892 46.0986 15.5222 43.0534 21.1961 46.056L37.0649 54.4536C41.1898 56.6365 43.2564 61.3823 42.0445 65.8892L41.7485 66.9899C40.5579 71.4174 36.509 74.4681 31.9248 74.3916L13.8788 74.0906Z" fill="#01295F"/>
<path d="M52.2107 18.3885C49.4445 12.4954 52.9572 5.57241 59.3465 4.32473L68.694 2.49939C74.9944 1.26906 80.8058 6.20942 80.6057 12.6258L80.0459 30.5708C79.9005 35.2354 76.5478 39.1792 71.9674 40.0736L70.8487 40.2921C66.3489 41.1708 61.8279 38.8769 59.8798 34.7266L52.2107 18.3885Z" fill="#FD151B"/>
<path d="M19.7176 108.005C13.8258 110.774 6.90114 107.265 5.65037 100.876L3.82051 91.5299C2.58713 85.23 7.52467 79.4163 13.9411 79.6133L31.8864 80.1643C36.5511 80.3076 40.4965 83.6583 41.3932 88.2383L41.6122 89.3569C42.493 93.8562 40.2014 98.3783 36.052 100.328L19.7176 108.005Z" fill="#849324"/>
<path d="M44.8979 134.94C41.5941 140.55 33.8966 141.557 29.2607 136.987L22.4785 130.3C17.9071 125.793 18.7058 118.208 24.1156 114.752L39.2456 105.086C43.1785 102.574 48.3263 103.116 51.6497 106.392L52.4614 107.193C55.7263 110.412 56.3841 115.438 54.0573 119.389L44.8979 134.94Z" fill="#FD151B"/>
<path d="M78.2916 148.555C77.9407 155.056 71.5709 159.493 65.3515 157.57L56.2527 154.756C50.1198 152.859 47.3371 145.757 50.5489 140.199L59.5316 124.654C61.8665 120.613 66.686 118.725 71.1446 120.103L72.2335 120.44C76.6136 121.795 79.5114 125.955 79.2643 130.533L78.2916 148.555Z" fill="#FFB30F"/>
</svg>
